<?xml version="1.0" encoding="UTF-8"?>
<svg width="40px" height="41px" viewBox="0 0 40 41" version="1.1" xmlns="http://www.w3.org/2000/svg" xmlns:xlink="http://www.w3.org/1999/xlink">
    <!-- Generator: Sketch 52.5 (67469) - http://www.bohemiancoding.com/sketch -->
    <title>earn-ico</title>
    <desc>Created with Sketch.</desc>
    <g id="Page-1" stroke="none" stroke-width="1" fill="none" fill-rule="evenodd" opacity="0.2">
        <g id="Group-2-Copy" transform="translate(2.000000, 2.387743)" fill="#7E7E7E">
            <path d="M25,32 L2,32 C0.8954305,32 -9.09359431e-13,31.1045695 -9.09494702e-13,30 L-9.09494702e-13,13 C-9.09629973e-13,11.8954305 0.8954305,11 2,11 L25,11 C26.1045695,11 27,11.8954305 27,13 L27,30 C27,31.1045695 26.1045695,32 25,32 Z M7.71428571,15.8890007 L7.71428571,17.3799537 L12.9452785,17.3799537 L12.9452785,19.143927 L9.5,19.143927 L9.5,20.5436215 L12.9452785,20.5436215 L12.9452785,22.143927 L9.5,22.143927 L9.5,23.6268179 L12.9452785,23.6268179 L12.9452785,27.643927 L14.5287481,27.643927 L14.5287481,23.6268179 L18,23.6268179 L18,22.143927 L14.5287481,22.143927 L14.5287481,20.5436215 L18,20.5436215 L18,19.143927 L14.5287481,19.143927 L14.5287481,17.3799537 L19.7857143,17.3799537 L19.7857143,15.8890007 L7.71428571,15.8890007 Z" id="Combined-Shape"></path>
            <path d="M33,4.88900071 L36,4.88900071 C36.5522847,4.88900071 37,5.33671596 37,5.88900071 C37,6.44128546 36.5522847,6.88900071 36,6.88900071 L33,6.88900071 L33,9.88900071 C33,10.4412855 32.5522847,10.8890007 32,10.8890007 C31.4477153,10.8890007 31,10.4412855 31,9.88900071 L31,6.88900071 L28,6.88900071 C27.4477153,6.88900071 27,6.44128546 27,5.88900071 C27,5.33671596 27.4477153,4.88900071 28,4.88900071 L31,4.88900071 L31,1.88900071 C31,1.33671596 31.4477153,0.889000711 32,0.889000711 C32.5522847,0.889000711 33,1.33671596 33,1.88900071 L33,4.88900071 Z" id="Combined-Shape"></path>
        </g>
    </g>
</svg>