<?xml version="1.0" encoding="UTF-8"?>
<svg width="15px" height="17px" viewBox="0 0 15 17" version="1.1" xmlns="http://www.w3.org/2000/svg" xmlns:xlink="http://www.w3.org/1999/xlink">
    <!-- Generator: Sketch 52.5 (67469) - http://www.bohemiancoding.com/sketch -->
    <title>Combined Shape</title>
    <desc>Created with Sketch.</desc>
    <g id="Page-1" stroke="none" stroke-width="1" fill="none" fill-rule="evenodd">
        <g id="iPhone-XS-Copy-182" transform="translate(-18.000000, -358.000000)" fill="#3673FF">
            <g id="Group-4" transform="translate(0.000000, 192.000000)">
                <g id="Group-15" transform="translate(18.000000, 153.340393)">
                    <path d="M12.1741594,27.4884455 C11.653949,28.1216689 9.82357881,30.1226548 7.96109691,29.5147603 C7.6700347,29.4211335 7.36771661,29.3657766 7.06196772,29.3501222 C6.76362045,29.3669921 6.46937007,29.426723 6.18852793,29.5274248 C5.9573326,29.5966826 5.71726795,29.6329334 5.47564693,29.6350728 C3.87648143,29.6350728 2.43145237,28.0330176 1.96904307,27.4884455 C0.389144634,25.3038249 -0.285202261,22.8532504 0.125828227,20.7509488 C0.306734771,19.5491533 0.98003524,18.4732539 1.98831013,17.7747989 C3.4975627,16.8122994 4.62789654,17.1415755 5.72611863,17.426526 C6.25848684,17.5956566 6.81145676,17.6936241 7.37024058,17.7178088 C7.88855974,17.6959241 8.40010565,17.5933408 8.88591551,17.4138616 C9.95657512,16.9380627 11.2052682,17.0764784 12.1420477,17.7747989 C13.1596456,18.4751801 13.8383432,19.5591506 14.0173743,20.7699455 C14.4219824,22.8722471 13.7540579,25.3228216 12.1741594,27.4884455 Z M7.26663951,16.7172073 C7.26717553,14.8317132 8.80114817,13.3033842 10.6933221,13.3033842 C10.721159,13.3033842 10.7489184,13.303715 10.7765965,13.3043728 C10.7760605,15.1898669 9.24208788,16.718196 7.34991396,16.718196 C7.32207703,16.718196 7.29431764,16.7178652 7.26663951,16.7172073 Z" id="Combined-Shape"></path>
                </g>
            </g>
        </g>
    </g>
</svg>