<?xml version="1.0" encoding="UTF-8"?>
<svg width="18px" height="17px" viewBox="0 0 18 17" version="1.1" xmlns="http://www.w3.org/2000/svg" xmlns:xlink="http://www.w3.org/1999/xlink">
    <!-- Generator: Sketch 52.5 (67469) - http://www.bohemiancoding.com/sketch -->
    <title>Group 16</title>
    <desc>Created with Sketch.</desc>
    <g id="Page-1" stroke="none" stroke-width="1" fill="none" fill-rule="evenodd">
        <g id="iPhone-XS-Copy-182" transform="translate(-16.000000, -408.000000)">
            <g id="Group-4" transform="translate(0.000000, 192.000000)">
                <g id="Group-12" transform="translate(16.000000, 199.670196)">
                    <g id="Group-16" transform="translate(0.000000, 16.000000)">
                        <path d="M13.674689,5.81896756 L17.3664768,5.81896756 L10.1802209,14.838387 L13.674689,5.81896756 Z M13.8656435,0.828688883 L17.2837298,5.13789636 L13.5855769,5.13789636 L9.76648606,0.828688883 L13.8656435,0.828688883 Z M3.8850862,0.828688883 L8.28977094,0.828688883 L4.47068012,5.13789636 L0.759796875,5.13789636 L3.8850862,0.828688883 Z M4.40066346,5.81896756 L7.93332247,14.7811007 L0.797987783,5.81896756 L4.40066346,5.81896756 Z M12.7008208,5.14426151 L5.37453162,5.14426151 L9.03449365,1.00054797 L9.03449365,0.994182818 L9.0408588,0.994182818 L9.04722396,1.00691312 L12.7008208,5.14426151 Z M12.9554269,5.81896756 L9.07904971,15.8249855 L9.07904971,15.8313507 L9.07268456,15.8377158 L5.11992556,5.81896756 L12.9554269,5.81896756 Z" id="Combined-Shape" fill="#3673FF" fill-rule="nonzero"></path>
                        <path d="M0.405446874,5.5297141 L17.7078053,5.5297141" id="Path-5" stroke="#FFFFFF"></path>
                        <polygon id="Path-6" stroke="#FFFFFF" points="4.76982109 5.5400535 8.99715611 0.648704731 13.3534577 5.5400535 8.98670763 16.9252548"></polygon>
                    </g>
                </g>
            </g>
        </g>
    </g>
</svg>