<?xml version="1.0" encoding="UTF-8"?>
<svg width="15px" height="15px" viewBox="0 0 15 15" version="1.1" xmlns="http://www.w3.org/2000/svg" xmlns:xlink="http://www.w3.org/1999/xlink">
    <!-- Generator: Sketch 52.5 (67469) - http://www.bohemiancoding.com/sketch -->
    <title>Group 17</title>
    <desc>Created with Sketch.</desc>
    <g id="Page-1" stroke="none" stroke-width="1" fill="none" fill-rule="evenodd">
        <g id="iPhone-XS-Copy-182" transform="translate(-17.000000, -451.000000)">
            <g id="Group-4" transform="translate(0.000000, 192.000000)">
                <g id="Group-14" transform="translate(17.000000, 243.829804)">
                    <g id="Group-17" transform="translate(0.000000, 15.000000)">
                        <path d="M13.0819173,1.25458732 L13.0819173,4.08447854 C12.4984432,4.38403118 12.1319602,4.98024433 12.1313482,5.63091228 L12.1313482,7.65772756 L3.27044891,7.65772756 L3.27044891,5.63091228 C3.26983693,4.98024433 2.90335386,4.38403118 2.31987982,4.08447854 L2.31987982,1.25458732 C2.31987982,0.709435127 2.76629689,0.267501956 3.31698026,0.267501956 L12.0848168,0.267501956 C12.6355002,0.267501956 13.0819173,0.709435127 13.0819173,1.25458732 Z M14.9830554,5.63091228 L14.9830554,14.1856521 C14.9830554,14.3746382 14.8282975,14.5278417 14.637394,14.5278417 L13.5871148,14.5278417 C13.3962113,14.5278417 13.2414533,14.3746382 13.2414533,14.1856521 L13.2414533,13.317017 L2.16034375,13.317017 L2.16034375,14.1659104 C2.16034375,14.3548965 2.00558583,14.5081 1.81468226,14.5081 L0.764403128,14.5081 C0.670446916,14.5116801 0.579071817,14.4772148 0.511343144,14.4126497 C0.443614471,14.3480846 0.405377396,14.2589917 0.405446969,14.1659104 L0.405446969,13.317017 L0.405446969,5.63091228 C0.405446969,5.03124486 0.89650575,4.54511838 1.50225746,4.54511838 L1.64849885,4.54511838 C1.76459063,4.55694667 1.87736796,4.59044005 1.98086567,4.64382691 C2.10742414,4.70143886 2.22058203,4.78433462 2.31323248,4.88730797 C2.49869556,5.08605683 2.60087902,5.34718331 2.59906794,5.61775114 L2.59906794,8.31578447 L12.7960818,8.31578447 L12.7960818,5.63091228 C12.7942707,5.36034445 12.8964542,5.09921797 13.0819173,4.90046911 C13.1745677,4.79749576 13.2877256,4.71459999 13.4142841,4.65698805 C13.5177818,4.60360119 13.6305591,4.57010781 13.7466509,4.55827951 L13.8928923,4.55827951 C14.4923864,4.55826848 14.9794,5.03745069 14.9830554,5.63091228 Z" id="Combined-Shape" fill="#3673FF"></path>
                        <path d="M1.40036624,4.02858057 C2.53725595,4.02858057 3.1057008,4.67410991 3.1057008,5.96516858 L3.1057008,7.90175659 L12.2960363,7.90175659 L12.2960363,5.96545735 C12.2945872,4.67420616 12.8543968,4.02858057 13.975465,4.02858057" id="Path-9" stroke="#FFFFFF"></path>
                    </g>
                </g>
            </g>
        </g>
    </g>
</svg>