<?xml version="1.0" encoding="UTF-8"?>
<svg width="30px" height="30px" viewBox="0 0 30 30" version="1.1" xmlns="http://www.w3.org/2000/svg" xmlns:xlink="http://www.w3.org/1999/xlink">
    <!-- Generator: Sketch 52.5 (67469) - http://www.bohemiancoding.com/sketch -->
    <title>Combined Shape Copy 2</title>
    <desc>Created with Sketch.</desc>
    <g id="Page-1" stroke="none" stroke-width="1" fill="none" fill-rule="evenodd" opacity="0.232916">
        <g id="iPhone-XS-Copy-178" transform="translate(-330.000000, -35.000000)" fill="#7E7E7E">
            <path d="M353.817126,59.938429 C352.466836,56.3835742 349.028458,53.8571429 345,53.8571429 C340.971542,53.8571429 337.533164,56.3835742 336.182874,59.938429 C333.441624,57.5046787 331.714286,53.9540601 331.714286,50 C331.714286,42.6625026 337.662503,36.7142857 345,36.7142857 C352.337497,36.7142857 358.285714,42.6625026 358.285714,50 C358.285714,53.9540601 356.558376,57.5046787 353.817126,59.938429 Z M345,51.2857143 C347.603628,51.2857143 349.714286,49.1750567 349.714286,46.5714286 C349.714286,43.9678005 347.603628,41.8571429 345,41.8571429 C342.396372,41.8571429 340.285714,43.9678005 340.285714,46.5714286 C340.285714,49.1750567 342.396372,51.2857143 345,51.2857143 Z M345,35 C353.284271,35 360,41.7157288 360,50 C360,58.2842712 353.284271,65 345,65 C336.715729,65 330,58.2842712 330,50 C330,41.7157288 336.715729,35 345,35 Z M345,36.7142857 C337.662503,36.7142857 331.714286,42.6625026 331.714286,50 C331.714286,57.3374974 337.662503,63.2857143 345,63.2857143 C352.337497,63.2857143 358.285714,57.3374974 358.285714,50 C358.285714,42.6625026 352.337497,36.7142857 345,36.7142857 Z" id="Combined-Shape-Copy-2"></path>
        </g>
    </g>
</svg>