<?xml version="1.0" encoding="UTF-8"?>
<svg width="40px" height="41px" viewBox="0 0 40 41" version="1.1" xmlns="http://www.w3.org/2000/svg" xmlns:xlink="http://www.w3.org/1999/xlink">
    <!-- Generator: Sketch 52.5 (67469) - http://www.bohemiancoding.com/sketch -->
    <title>save-ico copy</title>
    <desc>Created with Sketch.</desc>
    <g id="Page-1" stroke="none" stroke-width="1" fill="none" fill-rule="evenodd">
        <g id="Group-9-Copy" transform="translate(5.000000, 7.406049)">
            <path d="M0.5,22.3890007 L0.5,23.8890007 C0.5,25.545855 1.84314575,26.8890007 3.5,26.8890007 L26.3554913,26.8890007 C28.0123456,26.8890007 29.3554913,25.545855 29.3554913,23.8890007 L29.3554913,22.3890007" id="Path-2" stroke="#3673FF" stroke-width="2" stroke-linecap="round"></path>
            <path d="M15,22.6670021 C8.92486775,22.6670021 4,17.7421344 4,11.6670021 C4,5.59186988 8.92486775,0.667002132 15,0.667002132 C21.0751322,0.667002132 26,5.59186988 26,11.6670021 C26,17.7421344 21.0751322,22.6670021 15,22.6670021 Z M8.96428571,6.88900071 L8.96428571,8.37995367 L14.1952785,8.37995367 L14.1952785,10.143927 L10.75,10.143927 L10.75,11.5436215 L14.1952785,11.5436215 L14.1952785,13.143927 L10.75,13.143927 L10.75,14.6268179 L14.1952785,14.6268179 L14.1952785,18.643927 L15.7787481,18.643927 L15.7787481,14.6268179 L19.25,14.6268179 L19.25,13.143927 L15.7787481,13.143927 L15.7787481,11.5436215 L19.25,11.5436215 L19.25,10.143927 L15.7787481,10.143927 L15.7787481,8.37995367 L21.0357143,8.37995367 L21.0357143,6.88900071 L8.96428571,6.88900071 Z" id="Combined-Shape" fill="#3673FF" fill-rule="nonzero"></path>
        </g>
    </g>
</svg>