<?xml version="1.0" encoding="UTF-8"?>
<svg width="15px" height="16px" viewBox="0 0 15 16" version="1.1" xmlns="http://www.w3.org/2000/svg" xmlns:xlink="http://www.w3.org/1999/xlink">
    <!-- Generator: Sketch 52.5 (67469) - http://www.bohemiancoding.com/sketch -->
    <title>Shape</title>
    <desc>Created with Sketch.</desc>
    <g id="Page-1" stroke="none" stroke-width="1" fill="none" fill-rule="evenodd">
        <g id="iPhone-XS-Copy-182" transform="translate(-18.000000, -315.000000)" fill="#3673FF" fill-rule="nonzero">
            <g id="Group-4" transform="translate(0.000000, 192.000000)">
                <g id="Group-11" transform="translate(18.000000, 108.110919)">
                    <path d="M11.5756352,15.277253 L2.81087177,15.277253 C1.26319833,15.284169 0.0111352348,16.5940842 0.00783530671,18.2098052 L0.00783530671,27.3472852 C0.011150857,28.9619775 1.2641729,30.270083 2.81087177,30.2735443 L11.5756352,30.2735443 C13.1223341,30.270083 14.3753561,28.9619775 14.3786717,27.3472852 L14.3786717,18.2098052 C14.3753718,16.5940842 13.1233087,15.284169 11.5756352,15.277253 Z M5.78424399,16.154991 L8.69663158,16.154991 C8.91567945,16.154991 9.09325283,16.3325643 9.09325283,16.5516122 L9.09325283,16.5516122 C9.09325283,16.7706601 8.91567945,16.9482335 8.69663158,16.9482335 L5.78424399,16.9482335 C5.56519613,16.9482335 5.38762274,16.7706601 5.38762274,16.5516122 L5.38762274,16.5516122 C5.38762274,16.3325643 5.56519613,16.154991 5.78424399,16.154991 Z M3.5824603,28.1829489 C3.35394292,28.4130738 3.04998837,28.5436011 2.73250731,28.5479447 C2.0666689,28.5479447 1.52690023,27.9844475 1.52690023,27.2893386 C1.52690023,26.5942297 2.0666689,26.0307326 2.73250731,26.0307326 C3.39834571,26.0307326 3.93811439,26.5942297 3.93811439,27.2893386 C3.93386906,27.6238329 3.80652236,27.943802 3.5824603,28.1829489 Z M6.86171155,23.5337088 L3.01582497,23.5337088 C2.19488684,23.53026 1.53020384,22.8363572 1.52690023,21.9793303 L1.52690023,19.411774 C1.53020384,18.554747 2.19488684,17.8608443 3.01582497,17.8573955 L6.86171155,17.8573955 L6.86171155,23.5337088 Z M12.5702611,28.1829489 C12.34422,28.4169999 12.0386758,28.5482099 11.7203081,28.5479447 C11.0544697,28.5479447 10.514701,27.9844475 10.514701,27.2893386 C10.514701,26.5942297 11.0544697,26.0307326 11.7203081,26.0307326 C12.3861465,26.0307326 12.9259152,26.5942297 12.9259152,27.2893386 C12.9261698,27.6247852 12.7981446,27.9464591 12.5702611,28.1829489 Z M12.9259152,21.9793303 C12.9225954,22.8388068 12.2542536,23.5337158 11.4309624,23.5337088 L7.59110384,23.5337088 L7.59110384,17.8699815 L11.4369904,17.8699815 C12.255619,17.869919 12.9220404,18.5572206 12.9319432,19.411774 L12.9259152,21.9793303 Z" id="Shape"></path>
                </g>
            </g>
        </g>
    </g>
</svg>