<?xml version="1.0" encoding="UTF-8"?>
<svg width="95px" height="97px" viewBox="0 0 95 97" version="1.1" xmlns="http://www.w3.org/2000/svg" xmlns:xlink="http://www.w3.org/1999/xlink">
    <!-- Generator: Sketch 52.5 (67469) - http://www.bohemiancoding.com/sketch -->
    <title>vehicle copy</title>
    <desc>Created with Sketch.</desc>
    <g id="Page-1" stroke="none" stroke-width="1" fill="none" fill-rule="evenodd" opacity="0.139253162">
        <g id="iPhone-XS-Copy-183" transform="translate(-140.000000, -155.000000)" fill="#000000" fill-rule="nonzero">
            <g id="vehicle-copy" transform="translate(140.000000, 155.827986)">
                <path d="M75.8585627,0 L18.3815694,0 C8.23233761,0.0439607155 0.0216400527,8.37037614 -1.77635684e-15,18.6406309 L-1.77635684e-15,76.7225969 C0.0217424988,86.9863137 8.23872862,95.3012248 18.3815694,95.3232265 L75.8585627,95.3232265 C86.0014034,95.3012248 94.2183896,86.9863137 94.2401321,76.7225969 L94.2401321,18.6406309 C94.218492,8.37037614 86.0077945,0.0439607155 75.8585627,0 Z M36.2792186,5.57930019 L58.5797575,5.57930019 C59.1320423,5.57930019 59.5797575,6.02701544 59.5797575,6.57930019 L59.5797575,9.62150921 C59.5797575,10.173794 59.1320423,10.6215092 58.5797575,10.6215092 L36.2792186,10.6215092 C35.7269339,10.6215092 35.2792186,10.173794 35.2792186,9.62150921 L35.2792186,6.57930019 C35.2792186,6.02701544 35.7269339,5.57930019 36.2792186,5.57930019 Z M23.4414422,83.3228203 C21.9428859,84.7855981 19.9496326,85.6152891 17.867676,85.6428988 C13.5012845,85.6428988 9.9616247,82.0610556 9.9616247,77.642628 C9.9616247,73.2242005 13.5012845,69.6423572 17.867676,69.6423572 C22.2340676,69.6423572 25.7737274,73.2242005 25.7737274,77.642628 C25.7458876,79.7688252 24.9107818,81.8026939 23.4414422,83.3228203 Z M44.9459019,52.4817764 L19.7255981,52.4817764 C14.3421036,52.459854 9.98328892,48.0490936 9.9616247,42.601442 L9.9616247,26.2808895 C9.98328892,20.8332379 14.3421036,16.4224775 19.7255981,16.4005551 L44.9459019,16.4005551 L44.9459019,52.4817764 Z M82.381055,83.3228203 C80.8987379,84.8105543 78.8950597,85.6445847 76.8072888,85.6428988 C72.4408972,85.6428988 68.9012375,82.0610556 68.9012375,77.642628 C68.9012375,73.2242005 72.4408972,69.6423572 76.8072888,69.6423572 C81.1736804,69.6423572 84.7133402,73.2242005 84.7133402,77.642628 C84.7150098,79.7748785 83.8754545,81.8195839 82.381055,83.3228203 Z M84.7133402,42.601442 C84.6915703,48.0646641 80.3087621,52.4818208 74.9098365,52.4817764 L49.729063,52.4817764 L49.729063,16.4805578 L74.9493668,16.4805578 C80.3177159,16.4801604 84.6879307,20.8489612 84.7528704,26.2808895 L84.7133402,42.601442 Z" id="Shape"></path>
            </g>
        </g>
    </g>
</svg>