<?xml version="1.0" encoding="UTF-8"?>
<svg width="25px" height="22px" viewBox="0 0 25 22" version="1.1" xmlns="http://www.w3.org/2000/svg" xmlns:xlink="http://www.w3.org/1999/xlink">
    <!-- Generator: Sketch 52.5 (67469) - http://www.bohemiancoding.com/sketch -->
    <title>Group Copy 2</title>
    <desc>Created with Sketch.</desc>
    <g id="Page-1" stroke="none" stroke-width="1" fill="none" fill-rule="evenodd">
        <g id="iPhone-XS-Copy-155" transform="translate(-174.000000, -307.000000)">
            <g id="Group-Copy-2" transform="translate(186.500000, 318.000000) rotate(-360.000000) translate(-186.500000, -318.000000) translate(174.000000, 307.000000)">
                <path d="M15.0000918,7.09309823 L23.213808,9.90305376 C24.0228427,10.1798288 24.5664326,10.9403135 24.5664326,11.7953817 L24.5664326,12.080758 C24.5664326,12.9334397 23.8751975,13.6246748 23.0225159,13.6246748 C22.9685298,13.6246748 22.9145808,13.6218432 22.8608913,13.6161916 L14.8385884,12.7717387 L14.5966317,21.2792028 L10.8514253,21.2792028 L10.6091675,12.7704146 L2.57428583,13.6161916 C1.72628926,13.7054544 0.966490429,13.0903792 0.877227633,12.2423826 C0.871576107,12.1886931 0.868744509,12.1347442 0.868744509,12.080758 L0.868744509,11.7953817 C0.868744509,10.9403135 1.41233441,10.1798288 2.22136915,9.90305376 L10.4474058,7.08888332 L10.368118,4.3040687 C10.3502419,3.6762103 10.4310645,3.04943878 10.6076328,2.4466541 L10.9152182,1.39659141 C11.1445038,0.613835264 11.8624705,0.0760081495 12.6781169,0.0760081495 C13.497232,0.0760081495 14.2217601,0.607159108 14.468206,1.38832099 L14.8006004,2.4419147 C15.0020709,3.08051731 15.0952184,3.74834098 15.0761815,4.4176998 L15.0000918,7.09309823 Z" id="Combined-Shape" fill="#D8D8D8"></path>
                <path d="M4.66975267,9.64587758 L4.66975267,7.57587997" id="Path-8" stroke="#D8D8D8"></path>
                <path d="M21.6236234,10.0699976 L21.6236234,8" id="Path-8-Copy" stroke="#D8D8D8"></path>
                <polyline id="Path" fill="#D8D8D8" points="14.120026 17.1078467 18.3301989 19.1935247 18.3301989 21.2792028 7.10497822 21.2792028 7.10497822 19.1935247 11.3765532 17.1078467"></polyline>
            </g>
        </g>
    </g>
</svg>